# xmcd
# Track frame offsets:
# 150
# 20445
# 38086
# 58763
# 80177
# 90331
# 108432
# 123904
# 145352
# 159235
# 174634
# 187882
# 201607
# 215924
#
# Disc length: 3106 seconds
# Revision: 0
# Processed by: cddbd v1.5.2PL0 Copyright (c) Steve Scherf et al.
# Submitted via: VisiTrax 2.10.1.251 - For more info visit www.synapsa.com
#
DISCID=c70c200e
DTITLE=Various Artist - All Gone Fishin
DYEAR=1900
DGENRE=
TTITLE0=Bobby Bare - Out on The Water
TTITLE1=George Jones - Beer,Bait and Ammo
TTITLE2=Tanya Tucker - Sleepwalking
TTITLE3=Jerry Reed - Front Of The Boat
TTITLE4=Merle Haggard - Take Him Fishing
TTITLE5=Gary Shiebler and Patty Loveless - Breathin` Room
TTITLE6=Mel Tellis - Three Little Fishies
TTITLE7=Porter Wagoner - White Cap Hell
TTITLE8=Arlo Guthrie - Talking Fishing Blues
TTITLE9=Gary Shiebler and Maria Ramirez - As Country Could Be
TTITLE10=Lorrie Morgan - Something Fishy`s going On
TTITLE11=Little Jimmy Dickens and Brad Paisley - The Picture
TTITLE12=Danny Gilley - Fishin`Man Blues
TTITLE13=Bryan White and Rachel Proctor - Take Me Fishing
EXTD=
EXTT0=
EXTT1=
EXTT2=
EXTT3=
EXTT4=
EXTT5=
EXTT6=
EXTT7=
EXTT8=
EXTT9=
EXTT10=
EXTT11=
EXTT12=
EXTT13=
PLAYORDER=
